<?xml version="1.0" standalone="no"?>
<!DOCTYPE svg PUBLIC "-//W3C//DTD SVG 20010904//EN"
 "http://www.w3.org/TR/2001/REC-SVG-20010904/DTD/svg10.dtd">
<svg version="1.0" xmlns="http://www.w3.org/2000/svg"
 width="300.000000pt" height="300.000000pt" viewBox="0 0 300.000000 300.000000"
 preserveAspectRatio="xMidYMid meet">
<metadata>
Created by potrace 1.11, written by Peter Selinger 2001-2013
</metadata>
<g transform="translate(0.000000,300.000000) scale(0.100000,-0.100000)"
fill="#000000" stroke="none">
<path d="M964 2130 c-102 -21 -203 -102 -247 -198 -19 -40 -22 -69 -25 -203
l-4 -156 -73 -6 c-40 -3 -86 -12 -101 -20 -38 -20 -80 -65 -93 -100 -17 -44
-15 -539 3 -580 16 -39 76 -94 114 -104 15 -5 234 -8 487 -8 253 0 472 3 487
8 38 10 98 65 114 104 18 41 20 536 3 580 -13 35 -55 80 -93 100 -15 8 -61 17
-101 20 l-73 6 -4 156 c-3 147 -5 159 -31 213 -67 136 -223 217 -363 188z
m166 -120 c50 -25 106 -91 119 -137 6 -21 11 -98 11 -170 l0 -133 -235 0 -235
0 0 131 c0 151 10 193 58 249 73 86 185 110 282 60z m387 -573 l28 -27 0 -250
0 -250 -28 -27 -27 -28 -465 0 -465 0 -27 28 -28 27 -3 223 c-4 252 2 287 51
318 31 18 50 19 484 17 l453 -3 27 -28z"/>
<path d="M992 1268 c-16 -16 -16 -200 0 -216 7 -7 21 -12 33 -12 38 0 45 19
45 120 0 101 -7 120 -45 120 -12 0 -26 -5 -33 -12z"/>
<path d="M2084 2120 c-138 -29 -239 -136 -258 -272 l-5 -38 55 0 c52 0 54 1
54 28 1 38 32 102 66 134 42 39 95 58 164 58 144 0 223 -81 224 -230 1 -107
-26 -159 -150 -291 -107 -113 -129 -147 -144 -230 -17 -88 -17 -89 39 -89 51
0 61 9 61 54 0 64 33 119 134 225 138 145 174 225 163 365 -13 169 -123 279
-292 290 -39 3 -89 1 -111 -4z"/>
<path d="M2087 942 c-20 -22 -22 -71 -4 -95 6 -9 26 -19 42 -23 66 -13 112 69
65 116 -26 26 -81 26 -103 2z"/>
</g>
</svg>
